<svg width="24" height="24" viewBox="0 0 24 24" fill="none" xmlns="http://www.w3.org/2000/svg">
<path d="M24 12C24 13.2832 23.8968 14.5415 23.6998 15.7684C23.0474 19.8301 19.8301 23.0474 15.7684 23.6998C14.5415 23.8968 13.2831 24 12 24C10.7169 24 9.45853 23.8968 8.23161 23.6998C4.16995 23.0474 0.952588 19.8301 0.300234 15.7684C0.10317 14.5416 0 13.2832 0 12C0 10.7168 0.10317 9.45849 0.300234 8.23157C0.952588 4.1699 4.16995 0.952586 8.23161 0.300232C9.45853 0.103169 10.7169 0 12 0C13.2831 0 14.5415 0.103169 15.7684 0.300232C19.8301 0.952586 23.0474 4.1699 23.6998 8.23157C23.8968 9.45845 24 10.7168 24 12Z" fill="#0B5CFF"/>
<path d="M24 12C24 13.2832 23.8968 14.5415 23.6998 15.7684C23.0474 19.8301 19.8301 23.0474 15.7684 23.6998C14.5415 23.8968 13.2831 24 12 24C10.7169 24 9.45853 23.8968 8.23161 23.6998C4.16995 23.0474 0.952588 19.8301 0.300234 15.7684C0.10317 14.5416 0 13.2832 0 12C0 10.7168 0.10317 9.45849 0.300234 8.23157C0.952588 4.1699 4.16995 0.952586 8.23161 0.300232C9.45853 0.103169 10.7169 0 12 0C13.2831 0 14.5415 0.103169 15.7684 0.300232C19.8301 0.952586 23.0474 4.1699 23.6998 8.23157C23.8968 9.45845 24 10.7168 24 12Z" fill="url(#paint0_radial_12031_27667)"/>
<path d="M23.9999 12C23.9999 13.2832 23.8968 14.5415 23.6997 15.7684C23.0473 19.8301 19.83 23.0474 15.7683 23.6997C14.5414 23.8968 13.2831 24 12 24C10.7168 24 9.45851 23.8968 8.23158 23.6997C4.16988 23.0474 0.952561 19.8301 0.300207 15.7684C0.103143 14.5415 1.52588e-05 13.2832 1.52588e-05 12C1.52588e-05 10.7168 0.103143 9.45845 0.300207 8.23153C0.952604 4.16991 4.16992 0.952502 8.23158 0.300191C9.45855 0.103128 10.7168 0 12 0C13.2832 0 14.5414 0.103128 15.7683 0.300191C19.83 0.952502 23.0473 4.16991 23.6997 8.23153C23.8968 9.45845 23.9999 10.7167 23.9999 12Z" fill="url(#paint1_radial_12031_27667)"/>
<path d="M6.17785 15.3597C5.26361 14.4454 4.75 13.2054 4.75 11.9125C4.75 10.6196 5.26361 9.3796 6.17785 8.46536C6.3243 8.31891 6.3243 8.08148 6.17785 7.93503C6.03141 7.78858 5.79397 7.78858 5.64752 7.93503C4.59263 8.98992 4 10.4207 4 11.9125C4 13.4043 4.59263 14.8351 5.64752 15.89C5.79397 16.0364 6.03141 16.0364 6.17785 15.89C6.3243 15.7435 6.3243 15.5061 6.17785 15.3597Z" fill="white"/>
<path d="M7.19962 12.9162C7.0677 12.5978 6.9998 12.2564 6.9998 11.9117C6.9998 11.567 7.0677 11.2256 7.19962 10.9072C7.33154 10.5887 7.5249 10.2993 7.76865 10.0555C7.9151 9.9091 7.9151 9.67166 7.76865 9.52521C7.6222 9.37877 7.38477 9.37877 7.23832 9.52521C6.92492 9.83861 6.67632 10.2107 6.50671 10.6201C6.3371 11.0296 6.2498 11.4685 6.2498 11.9117C6.2498 12.3549 6.3371 12.7938 6.50671 13.2033C6.67632 13.6127 6.92492 13.9848 7.23832 14.2982C7.38477 14.4446 7.6222 14.4446 7.76865 14.2982C7.9151 14.1517 7.9151 13.9143 7.76865 13.7679C7.5249 13.5241 7.33154 13.2347 7.19962 12.9162Z" fill="white"/>
<path d="M17.0002 11.9117C17.0002 12.2564 16.9323 12.5978 16.8004 12.9162C16.6685 13.2347 16.4751 13.5241 16.2314 13.7679C16.0849 13.9143 16.0849 14.1517 16.2314 14.2982C16.3778 14.4446 16.6152 14.4446 16.7617 14.2982C17.0751 13.9848 17.3237 13.6127 17.4933 13.2033C17.6629 12.7938 17.7502 12.3549 17.7502 11.9117C17.7502 11.4685 17.6629 11.0296 17.4933 10.6201C17.3237 10.2107 17.0751 9.83861 16.7617 9.52521C16.6152 9.37877 16.3778 9.37877 16.2313 9.52521C16.0849 9.67166 16.0849 9.9091 16.2313 10.0555C16.4751 10.2993 16.6685 10.5887 16.8004 10.9072C16.9323 11.2256 17.0002 11.567 17.0002 11.9117Z" fill="white"/>
<path d="M17.8221 15.3597C18.7364 14.4454 19.25 13.2054 19.25 11.9125C19.25 10.6196 18.7364 9.3796 17.8221 8.46536C17.6757 8.31891 17.6757 8.08148 17.8221 7.93503C17.9686 7.78858 18.206 7.78858 18.3525 7.93503C19.4074 8.98992 20 10.4207 20 11.9125C20 13.4043 19.4074 14.8351 18.3525 15.89C18.206 16.0364 17.9686 16.0364 17.8221 15.89C17.6757 15.7435 17.6757 15.5061 17.8221 15.3597Z" fill="white"/>
<path d="M12 13.9998C13.1046 13.9998 14 13.1044 14 11.9998C14 10.8952 13.1046 9.99982 12 9.99982C10.8954 9.99982 10 10.8952 10 11.9998C10 13.1044 10.8954 13.9998 12 13.9998Z" fill="white"/>
<defs>
<radialGradient id="paint0_radial_12031_27667" cx="0" cy="0" r="1" gradientUnits="userSpaceOnUse" gradientTransform="translate(12 10.6055) scale(16.1791 13.5222)">
<stop offset="0.82" stop-color="#0B5CFF" stop-opacity="0"/>
<stop offset="0.98" stop-color="#003CB3"/>
</radialGradient>
<radialGradient id="paint1_radial_12031_27667" cx="0" cy="0" r="1" gradientUnits="userSpaceOnUse" gradientTransform="translate(12 13.3895) scale(16.1733 13.5174)">
<stop offset="0.8" stop-color="#0B5CFF" stop-opacity="0"/>
<stop offset="1" stop-color="#71A5F1"/>
</radialGradient>
</defs>
</svg>
