<svg width="24" height="24" viewBox="0 0 24 24" fill="none" xmlns="http://www.w3.org/2000/svg">
<path fill-rule="evenodd" clip-rule="evenodd" d="M17.9778 16.5C18.1129 16.5 18.2459 16.5339 18.3646 16.5986L21.4824 18.2993C22.0246 18.595 22.6324 18.75 23.25 18.75C23.6642 18.75 24 18.4142 24 18C24 17.5858 23.6642 17.25 23.25 17.25C22.8834 17.25 22.5226 17.158 22.2007 16.9824L19.0829 15.2818C18.7439 15.0969 18.3639 15 17.9778 15H12.375C10.9253 15 9.75 16.1753 9.75 17.625C9.75 18.0276 9.84063 18.409 10.0026 18.75H8.48294L4.33746 15.9C3.07834 15.0343 1.35439 15.3663 0.506815 16.6377C-0.346956 17.9184 0.0218391 19.6509 1.32318 20.4728L6.0016 23.4275C6.59371 23.8015 7.2797 24 7.98002 24H23.25C23.6642 24 24 23.6642 24 23.25C24 22.8358 23.6642 22.5 23.25 22.5H7.98002C7.56323 22.5 7.15498 22.3819 6.80259 22.1593L2.12417 19.2045C1.53551 18.8327 1.36869 18.049 1.75489 17.4697C2.13829 16.8947 2.91811 16.7445 3.48767 17.136L7.8251 20.118C7.95013 20.204 8.09828 20.25 8.25 20.25H15.75C16.1642 20.25 16.5 19.9142 16.5 19.5C16.5 19.0858 16.1642 18.75 15.75 18.75H12.375C11.7537 18.75 11.25 18.2463 11.25 17.625C11.25 17.0037 11.7537 16.5 12.375 16.5H17.9778Z" fill="#8099FB"/>
<path d="M14.25 0L14.587 1.25173C14.7723 1.94002 15.31 2.47765 15.9983 2.66297L17.25 3L15.9983 3.33703C15.31 3.52235 14.7723 4.05998 14.587 4.74827L14.25 6L13.913 4.74827C13.7277 4.05998 13.19 3.52235 12.5017 3.33703L11.25 3L12.5017 2.66297C13.19 2.47765 13.7277 1.94002 13.913 1.25173L14.25 0Z" fill="#FFF947"/>
<path fill-rule="evenodd" clip-rule="evenodd" d="M2.46863 10.1292C2.26717 10.0386 2.0621 9.95451 1.85367 9.87703C1.75396 9.83996 1.65347 9.80442 1.55225 9.77042C1.17318 9.6431 1.17318 9.10693 1.55225 8.97961C1.65347 8.94561 1.75396 8.91006 1.85367 8.87299C2.0621 8.79551 2.26717 8.71138 2.46863 8.62086C2.5141 8.60043 2.55937 8.57968 2.60447 8.5586C4.72982 7.5652 6.4402 5.85482 7.4336 3.72947C7.45468 3.68437 7.47543 3.6391 7.49586 3.59363C7.58638 3.39217 7.67051 3.1871 7.74799 2.97867C7.78506 2.87896 7.82061 2.77847 7.85461 2.67725C7.98193 2.29818 8.5181 2.29818 8.64542 2.67725C8.67942 2.77847 8.71496 2.87896 8.75203 2.97867C8.82951 3.1871 8.91364 3.39217 9.00416 3.59363C9.02459 3.6391 9.04535 3.68437 9.06642 3.72947C10.0598 5.85482 11.7702 7.5652 13.8956 8.5586C13.9407 8.57968 13.9859 8.60043 14.0314 8.62086C14.2329 8.71138 14.4379 8.79551 14.6464 8.87299C14.7461 8.91006 14.8465 8.94561 14.9478 8.97961C15.3268 9.10693 15.3268 9.6431 14.9478 9.77042C14.8465 9.80442 14.7461 9.83996 14.6464 9.87703C14.4379 9.95451 14.2329 10.0386 14.0314 10.1292C13.9859 10.1496 13.9407 10.1703 13.8956 10.1914C11.7702 11.1848 10.0598 12.8952 9.06642 15.0206C9.04535 15.0657 9.02459 15.1109 9.00416 15.1564C8.91364 15.3579 8.82951 15.5629 8.75203 15.7714C8.71496 15.8711 8.67942 15.9715 8.64542 16.0728C8.5181 16.4518 7.98193 16.4518 7.85461 16.0728C7.82061 15.9715 7.78506 15.8711 7.74799 15.7714C7.67051 15.5629 7.58638 15.3579 7.49586 15.1564C7.47543 15.1109 7.45468 15.0657 7.4336 15.0206C6.4402 12.8952 4.72982 11.1848 2.60447 10.1914C2.55937 10.1703 2.5141 10.1496 2.46863 10.1292ZM4.26263 9.37501C5.90129 10.3527 7.27231 11.7237 8.25001 13.3624C9.22772 11.7237 10.5987 10.3527 12.2374 9.37501C10.5987 8.39731 9.22772 7.02629 8.25001 5.38763C7.27231 7.02629 5.90129 8.39731 4.26263 9.37501Z" fill="#FFF947"/>
</svg>
