<svg width="100%" height="100%" viewBox="0 0 100 100" fill="none" xmlns="http://www.w3.org/2000/svg">
<path fill-rule="evenodd" clip-rule="evenodd" d="M17.1988 3H6.8012L1.60294 12L6.8012 21L17.1988 21L22.3971 12L17.1988 3ZM18.3059 1.9177C18.1566 1.65923 17.8807 1.5 17.5821 1.5H6.41787C6.11929 1.5 5.84339 1.65923 5.69409 1.9177L0.111969 11.5823C-0.0373232 11.8408 -0.0373227 12.1592 0.111969 12.4177L5.69409 22.0823C5.84339 22.3408 6.11929 22.5 6.41787 22.5L17.5821 22.5C17.8807 22.5 18.1566 22.3408 18.3059 22.0823L23.888 12.4177C24.0373 12.1592 24.0373 11.8408 23.888 11.5823L18.3059 1.9177Z" fill="#FF0055"/>
<mask id="path-2-inside-1_12031_19840" fill="white">
<path fill-rule="evenodd" clip-rule="evenodd" d="M15.9424 7.45696C15.5519 7.06643 14.9187 7.06643 14.5282 7.45696L12.0533 9.93186L9.5784 7.45697C9.18787 7.06644 8.55471 7.06644 8.16418 7.45697L7.45708 8.16407C7.06655 8.5546 7.06655 9.18776 7.45708 9.57829L9.93197 12.0532L7.45712 14.528C7.0666 14.9185 7.0666 15.5517 7.45712 15.9422L8.16423 16.6493C8.55475 17.0399 9.18792 17.0399 9.57844 16.6493L12.0533 14.1745L14.5281 16.6494C14.9187 17.0399 15.5518 17.0399 15.9424 16.6494L16.6495 15.9422C17.04 15.5517 17.04 14.9186 16.6495 14.528L14.1746 12.0532L16.6495 9.57828C17.04 9.18775 17.04 8.55459 16.6495 8.16406L15.9424 7.45696Z"/>
</mask>
<path fill-rule="evenodd" clip-rule="evenodd" d="M15.9424 7.45696C15.5519 7.06643 14.9187 7.06643 14.5282 7.45696L12.0533 9.93186L9.5784 7.45697C9.18787 7.06644 8.55471 7.06644 8.16418 7.45697L7.45708 8.16407C7.06655 8.5546 7.06655 9.18776 7.45708 9.57829L9.93197 12.0532L7.45712 14.528C7.0666 14.9185 7.0666 15.5517 7.45712 15.9422L8.16423 16.6493C8.55475 17.0399 9.18792 17.0399 9.57844 16.6493L12.0533 14.1745L14.5281 16.6494C14.9187 17.0399 15.5518 17.0399 15.9424 16.6494L16.6495 15.9422C17.04 15.5517 17.04 14.9186 16.6495 14.528L14.1746 12.0532L16.6495 9.57828C17.04 9.18775 17.04 8.55459 16.6495 8.16406L15.9424 7.45696Z" fill="white" fill-opacity="0.4"/>
<path d="M14.5282 7.45696L13.114 6.04274L13.114 6.04274L14.5282 7.45696ZM15.9424 7.45696L14.5282 8.87117L14.5282 8.87117L15.9424 7.45696ZM12.0533 9.93186L10.6391 11.3461L12.0533 12.7603L13.4675 11.3461L12.0533 9.93186ZM9.5784 7.45697L10.9926 6.04275V6.04275L9.5784 7.45697ZM8.16418 7.45697L9.5784 8.87118L8.16418 7.45697ZM7.45708 8.16407L8.87129 9.57829L7.45708 8.16407ZM7.45708 9.57829L8.87129 8.16407L8.87129 8.16407L7.45708 9.57829ZM9.93197 12.0532L11.3462 13.4674L12.7604 12.0532L11.3462 10.639L9.93197 12.0532ZM7.45712 14.528L6.04291 13.1138L6.04291 13.1138L7.45712 14.528ZM7.45712 15.9422L8.87133 14.528L8.87133 14.528L7.45712 15.9422ZM8.16423 16.6493L9.57844 15.2351L9.57844 15.2351L8.16423 16.6493ZM9.57844 16.6493L8.16423 15.2351L8.16423 15.2351L9.57844 16.6493ZM12.0533 14.1745L13.4675 12.7603L12.0533 11.3461L10.6391 12.7603L12.0533 14.1745ZM14.5281 16.6494L15.9424 15.2351L15.9424 15.2351L14.5281 16.6494ZM16.6495 14.528L18.0637 13.1138L18.0637 13.1138L16.6495 14.528ZM14.1746 12.0532L12.7604 10.639L11.3462 12.0532L12.7604 13.4674L14.1746 12.0532ZM16.6495 9.57828L15.2353 8.16406L15.2353 8.16406L16.6495 9.57828ZM16.6495 8.16406L15.2353 9.57828L15.2353 9.57828L16.6495 8.16406ZM15.9424 8.87117C15.5519 9.26169 14.9187 9.26169 14.5282 8.87117L17.3566 6.04274C16.185 4.87117 14.2855 4.87117 13.114 6.04274L15.9424 8.87117ZM13.4675 11.3461L15.9424 8.87117L13.114 6.04274L10.6391 8.51764L13.4675 11.3461ZM8.16418 8.87118L10.6391 11.3461L13.4675 8.51764L10.9926 6.04275L8.16418 8.87118ZM9.5784 8.87118C9.18787 9.2617 8.55471 9.2617 8.16418 8.87118L10.9926 6.04275C9.82104 4.87118 7.92154 4.87118 6.74997 6.04275L9.5784 8.87118ZM8.87129 9.57829L9.5784 8.87118L6.74997 6.04275L6.04286 6.74986L8.87129 9.57829ZM8.87129 8.16407C9.26182 8.5546 9.26182 9.18776 8.87129 9.57829L6.04286 6.74986C4.87129 7.92143 4.87129 9.82093 6.04286 10.9925L8.87129 8.16407ZM11.3462 10.639L8.87129 8.16407L6.04286 10.9925L8.51775 13.4674L11.3462 10.639ZM8.87133 15.9422L11.3462 13.4674L8.51775 10.639L6.04291 13.1138L8.87133 15.9422ZM8.87133 14.528C9.26186 14.9185 9.26186 15.5517 8.87134 15.9422L6.04291 13.1138C4.87134 14.2854 4.87133 16.1849 6.04291 17.3565L8.87133 14.528ZM9.57844 15.2351L8.87133 14.528L6.04291 17.3565L6.75001 18.0636L9.57844 15.2351ZM8.16423 15.2351C8.55475 14.8446 9.18792 14.8446 9.57844 15.2351L6.75001 18.0636C7.92159 19.2351 9.82108 19.2351 10.9927 18.0636L8.16423 15.2351ZM10.6391 12.7603L8.16423 15.2351L10.9927 18.0636L13.4675 15.5887L10.6391 12.7603ZM15.9424 15.2351L13.4675 12.7603L10.6391 15.5887L13.1139 18.0636L15.9424 15.2351ZM14.5281 15.2351C14.9187 14.8446 15.5518 14.8446 15.9424 15.2351L13.1139 18.0636C14.2855 19.2351 16.185 19.2351 17.3566 18.0636L14.5281 15.2351ZM15.2353 14.528L14.5281 15.2351L17.3566 18.0636L18.0637 17.3565L15.2353 14.528ZM15.2353 15.9422C14.8447 15.5517 14.8447 14.9186 15.2353 14.528L18.0637 17.3565C19.2353 16.1849 19.2353 14.2854 18.0637 13.1138L15.2353 15.9422ZM12.7604 13.4674L15.2353 15.9422L18.0637 13.1138L15.5888 10.639L12.7604 13.4674ZM15.2353 8.16406L12.7604 10.639L15.5888 13.4674L18.0637 10.9925L15.2353 8.16406ZM15.2353 9.57828C14.8448 9.18775 14.8448 8.55459 15.2353 8.16406L18.0637 10.9925C19.2353 9.82092 19.2353 7.92142 18.0637 6.74985L15.2353 9.57828ZM14.5282 8.87117L15.2353 9.57828L18.0637 6.74985L17.3566 6.04274L14.5282 8.87117Z" fill="white" mask="url(#path-2-inside-1_12031_19840)"/>
</svg>
